<svg width="108" height="108" viewBox="0 0 108 108" fill="none" xmlns="http://www.w3.org/2000/svg">
<path d="M53.9248 0.0712891C47.2001 0.0712891 41.5642 4.40932 39.3362 9.83269C38.5272 11.8517 38.1598 14.0123 38.2676 16.1864C36.7946 14.5853 35.0014 13.3045 33.0194 12.4483C30.9295 11.5854 28.6812 11.2045 26.4363 11.2888C22.4318 11.4102 18.6397 13.0449 15.7982 15.8729C11.0387 20.6289 10.1252 27.6702 12.3735 33.0935C13.1656 35.0216 14.4802 36.7608 16.0409 38.2709C13.9005 38.2169 11.7398 38.6046 9.7578 39.4135C4.33426 41.6415 -0.00390625 47.2772 -0.00390625 54.0017C-0.00390625 60.7261 4.33426 66.3619 9.7578 68.5899C11.7027 69.4157 13.9005 69.7123 16.1117 69.6584C14.4971 71.1684 13.1825 72.9447 12.3735 74.9065C10.1252 80.3298 11.0387 87.3745 15.7982 92.1271C20.5543 96.8865 27.5958 97.7999 33.0194 95.5517C34.9643 94.7427 36.7407 93.4248 38.2676 91.8136C38.1969 94.0248 38.5103 96.2225 39.3362 98.1673C41.5642 103.591 47.2001 107.929 53.9248 107.929C60.6495 107.929 66.2854 103.591 68.5134 98.1673C69.3224 96.1483 69.6898 93.9877 69.582 91.8136C71.1089 93.4147 72.8684 94.7427 74.8302 95.5517C80.2538 97.7999 87.2987 96.8865 92.0514 92.1271C96.8109 87.3711 97.7244 80.3298 95.4761 74.9065C94.6166 72.9245 93.3357 71.1313 91.7379 69.6584C93.9121 69.7662 96.0761 69.3988 98.0918 68.5899C103.515 66.3619 107.854 60.7261 107.854 54.0017C107.854 47.2772 103.515 41.6415 98.0918 39.4135C96.0727 38.6046 93.9121 38.254 91.7379 38.345C93.3525 36.835 94.6671 35.0586 95.4761 33.0969C97.7244 27.6735 96.8109 20.6289 92.0514 15.8763C89.2099 13.0483 85.4178 11.4135 81.4133 11.2922C79.165 11.2079 76.9201 11.5888 74.8302 12.4517C72.8853 13.2606 71.1089 14.5786 69.582 16.1897C69.6898 14.0157 69.3224 11.8517 68.5134 9.83606C66.2854 4.41269 60.6495 0.0746597 53.9248 0.0746597V0.0712891ZM53.7495 7.32156C61.4382 7.14628 65.4258 16.4526 59.9821 21.9097V39.4135L72.3426 27.0365C72.3426 19.4188 81.5549 15.6066 86.9312 20.9963C92.3211 26.3725 88.5088 35.5845 80.8908 35.5845L68.5134 47.9446H86.0178C91.4076 42.5752 100.606 46.384 100.606 54.0017C100.606 61.6194 91.4076 65.4316 86.0178 60.0587H68.5134L80.8908 72.4189C88.5088 72.4189 92.3211 81.6309 86.9312 87.0071C81.5549 92.3968 72.3426 88.5846 72.3426 80.9669L59.9821 68.5899V86.0936C65.3517 91.4833 61.5427 100.682 53.9248 100.682C46.3069 100.682 42.4946 91.4833 47.8676 86.0936V68.5899L35.507 80.9669C35.507 88.5846 26.2947 92.3968 20.9184 87.0071C15.5285 81.6309 19.3409 72.4189 26.9588 72.4189L39.3362 60.0587H21.8318C16.442 65.4282 7.24322 61.6194 7.24322 54.0017C7.24322 46.384 16.442 42.5718 21.8318 47.9446H39.3362L26.9588 35.5845C19.3409 35.5845 15.5285 26.3725 20.9184 20.9963C26.2947 15.6066 35.507 19.4188 35.507 27.0365L47.8676 39.4135V21.9097C42.5519 16.5942 46.2193 7.47998 53.7495 7.32156Z" fill="#1B222C"/>
</svg>
