<svg width="37" height="37" viewBox="0 0 37 37" fill="none" xmlns="http://www.w3.org/2000/svg">
<path d="M18.5 0C16.1931 0 14.2598 1.48814 13.4954 3.3486C13.2179 4.04122 13.0919 4.7824 13.1289 5.5282C12.6236 4.97897 12.0084 4.53958 11.3285 4.24588C10.6116 3.94987 9.8403 3.81921 9.07019 3.84812C7.69648 3.88975 6.39562 4.45055 5.42084 5.42067C3.78811 7.05219 3.47475 9.46767 4.24602 11.3281C4.51775 11.9895 4.96872 12.5862 5.50409 13.1042C4.76983 13.0857 4.02863 13.2187 3.34871 13.4962C1.48819 14.2605 0 16.1938 0 18.5006C0 20.8074 1.48819 22.7407 3.34871 23.505C4.01591 23.7883 4.76983 23.89 5.52838 23.8715C4.9745 24.3895 4.52353 24.9989 4.24602 25.6719C3.47475 27.5323 3.78811 29.949 5.42084 31.5793C7.05241 33.212 9.46797 33.5254 11.3285 32.7541C11.9957 32.4766 12.6051 32.0245 13.1289 31.4718C13.1046 32.2303 13.2121 32.9842 13.4954 33.6514C14.2598 35.5119 16.1931 37 18.5 37C20.8069 37 22.7402 35.5119 23.5046 33.6514C23.7821 32.9588 23.9081 32.2176 23.8711 31.4718C24.3949 32.021 24.9985 32.4766 25.6715 32.7541C27.532 33.5254 29.9487 33.212 31.5792 31.5793C33.2119 29.9478 33.5253 27.5323 32.754 25.6719C32.4591 24.992 32.0197 24.3768 31.4716 23.8715C32.2175 23.9085 32.9598 23.7825 33.6513 23.505C35.5118 22.7407 37 20.8074 37 18.5006C37 16.1938 35.5118 14.2605 33.6513 13.4962C32.9587 13.2187 32.2175 13.0984 31.4716 13.1296C32.0255 12.6116 32.4765 12.0023 32.754 11.3293C33.5253 9.46883 33.2119 7.05219 31.5792 5.42183C30.6044 4.4517 29.3035 3.8909 27.9298 3.84928C27.1585 3.82037 26.3884 3.95103 25.6715 4.24704C25.0043 4.52455 24.3949 4.97666 23.8711 5.52936C23.9081 4.78356 23.7821 4.04122 23.5046 3.34976C22.7402 1.4893 20.8069 0.00115629 18.5 0.00115629V0ZM18.4399 2.48717C21.0774 2.42704 22.4454 5.61955 20.5779 7.49158V13.4962L24.8181 9.25029C24.8181 6.63708 27.9784 5.32932 29.8227 7.17822C31.6717 9.0225 30.3639 12.1826 27.7506 12.1826L23.5046 16.4227H29.5093C31.3583 14.5808 34.5139 15.8874 34.5139 18.5006C34.5139 21.1138 31.3583 22.4215 29.5093 20.5784H23.5046L27.7506 24.8185C30.3639 24.8185 31.6717 27.9787 29.8227 29.8229C27.9784 31.6718 24.8181 30.3641 24.8181 27.7509L20.5779 23.505V29.5096C22.4199 31.3585 21.1133 34.514 18.5 34.514C15.8867 34.514 14.5789 31.3585 16.4221 29.5096V23.505L12.1819 27.7509C12.1819 30.3641 9.02163 31.6718 7.17729 29.8229C5.32833 27.9787 6.63613 24.8185 9.24942 24.8185L13.4954 20.5784H7.49066C5.6417 22.4204 2.48609 21.1138 2.48609 18.5006C2.48609 15.8874 5.6417 14.5796 7.49066 16.4227H13.4954L9.24942 12.1826C6.63613 12.1826 5.32833 9.0225 7.17729 7.17822C9.02163 5.32932 12.1819 6.63708 12.1819 9.25029L16.4221 13.4962V7.49158C14.5986 5.66811 15.8566 2.54152 18.4399 2.48717Z" fill="white"/>
</svg>
