<svg width="17" height="22" viewBox="0 0 17 22" fill="none" xmlns="http://www.w3.org/2000/svg">
<path d="M16.6085 13.8715L15.5035 12.0332C15.2714 11.6234 15.0614 10.8483 15.0614 10.3942V7.59248C15.0614 3.98233 12.133 1.03662 8.5194 1.03662C4.90585 1.03662 1.97741 3.98233 1.97741 7.59248V10.3942C1.97741 10.8483 1.76745 11.6234 1.53538 12.0221L0.41926 13.8715C-0.0227692 14.6134 -0.122225 15.4329 0.154043 16.186C0.41926 16.9279 1.04915 17.5038 1.8669 17.7806C4.01074 18.5115 6.26509 18.8659 8.5194 18.8659C10.7737 18.8659 13.0281 18.5115 15.1719 17.7917C15.9455 17.537 16.5422 16.9501 16.8295 16.186C17.1169 15.4219 17.0395 14.5802 16.6085 13.8715Z" fill="white"/>
<path d="M11.1946 1.45122C10.391 1.15438 9.51748 0.989468 8.59737 0.989468C7.68891 0.989468 6.81538 1.14339 6.01172 1.45122C6.51256 0.560698 7.50255 0 8.59737 0C9.70383 0 10.6822 0.560698 11.1946 1.45122Z" fill="white"/>
<path d="M11.8172 20.1191C11.3548 21.2013 10.1329 21.9756 8.70191 21.9756C7.83228 21.9756 6.97366 21.6771 6.36821 21.1453C6.01596 20.8654 5.75177 20.4922 5.59766 20.1097C5.74076 20.1284 5.88386 20.1377 6.03797 20.1564C6.29116 20.1844 6.55536 20.2124 6.81955 20.231C7.447 20.2777 8.08547 20.3057 8.72393 20.3057C9.35138 20.3057 9.97884 20.2777 10.5953 20.231C10.8265 20.2124 11.0576 20.203 11.2778 20.175C11.4539 20.1564 11.63 20.1377 11.8172 20.1191Z" fill="white"/>
</svg>
