<svg width="16" height="23" viewBox="0 0 16 23" fill="none" xmlns="http://www.w3.org/2000/svg">
<path d="M7.99987 0.148621C10.9814 0.148621 13.4053 2.57507 13.4053 5.55972C13.4053 8.48741 11.1179 10.8569 8.13643 10.9594C8.04539 10.948 7.95435 10.948 7.88607 10.9594C7.86331 10.9594 7.85193 10.9594 7.82917 10.9594C7.81779 10.9594 7.81779 10.9594 7.80641 10.9594C4.89318 10.8569 2.60584 8.48741 2.59446 5.55972C2.59446 2.57507 5.01836 0.148621 7.99987 0.148621Z" fill="white"/>
<path d="M2.22728 13.8554C5.39774 11.7238 10.5682 11.7238 13.7614 13.8554C15.2045 14.8294 16 16.1473 16 17.5569C16 18.9664 15.2045 20.2728 13.7727 21.2355C12.1818 22.3127 10.0909 22.8513 8.00002 22.8513C5.90911 22.8513 3.81819 22.3127 2.22728 21.2355C0.795456 20.2614 4.37085e-07 18.955 4.37085e-07 17.534C0.0113641 16.1244 0.795456 14.818 2.22728 13.8554Z" fill="white"/>
</svg>
