<svg width="19" height="20" viewBox="0 0 19 20" fill="none" xmlns="http://www.w3.org/2000/svg">
<path fill-rule="evenodd" clip-rule="evenodd" d="M11.2788 0.15224C10.9085 4.47035e-08 10.439 0 9.49999 0C8.56099 0 8.09149 4.47035e-08 7.72119 0.15224C7.22739 0.35523 6.83508 0.74458 6.63055 1.23463C6.53718 1.45834 6.50064 1.7185 6.48634 2.09799C6.46533 2.65568 6.17715 3.17189 5.69016 3.45093C5.20317 3.72996 4.60863 3.71954 4.11148 3.45876C3.77317 3.2813 3.52788 3.18262 3.28598 3.15102C2.75609 3.08178 2.22018 3.22429 1.79616 3.5472C1.47814 3.78938 1.24339 4.1929 0.773897 4.99993C0.304407 5.80697 0.0696677 6.21048 0.0173477 6.60491C-0.0524222 7.1308 0.0911776 7.66266 0.416547 8.0835C0.565057 8.2756 0.773767 8.437 1.0977 8.639C1.57391 8.936 1.88032 9.4419 1.88029 10C1.88026 10.5581 1.57386 11.0639 1.0977 11.3608C0.773717 11.5629 0.564967 11.7244 0.416447 11.9165C0.0910777 12.3373 -0.0525121 12.8691 0.0172478 13.395C0.0695678 13.7894 0.304317 14.193 0.773797 15C1.24329 15.807 1.47804 16.2106 1.79606 16.4527C2.22008 16.7756 2.75599 16.9181 3.28588 16.8489C3.52777 16.8173 3.77304 16.7186 4.11132 16.5412C4.60851 16.2804 5.20309 16.27 5.69011 16.549C6.17713 16.8281 6.46532 17.3443 6.48634 17.9021C6.50064 18.2815 6.53718 18.5417 6.63055 18.7654C6.83508 19.2554 7.22739 19.6448 7.72119 19.8478C8.09149 20 8.56099 20 9.49999 20C10.439 20 10.9085 20 11.2788 19.8478C11.7726 19.6448 12.1649 19.2554 12.3694 18.7654C12.4628 18.5417 12.4994 18.2815 12.5137 17.902C12.5347 17.3443 12.8228 16.8281 13.3098 16.549C13.7968 16.2699 14.3914 16.2804 14.8886 16.5412C15.2269 16.7186 15.4721 16.8172 15.714 16.8488C16.2439 16.9181 16.7798 16.7756 17.2038 16.4527C17.5219 16.2105 17.7566 15.807 18.2261 14.9999C18.6956 14.1929 18.9303 13.7894 18.9827 13.395C19.0524 12.8691 18.9088 12.3372 18.5835 11.9164C18.4349 11.7243 18.2262 11.5628 17.9022 11.3608C17.4261 11.0639 17.1197 10.558 17.1197 9.9999C17.1197 9.4418 17.4261 8.9361 17.9022 8.6392C18.2263 8.4371 18.435 8.2757 18.5836 8.0835C18.9089 7.66273 19.0525 7.13087 18.9828 6.60497C18.9304 6.21055 18.6957 5.80703 18.2262 5C17.7567 4.19297 17.522 3.78945 17.2039 3.54727C16.7799 3.22436 16.244 3.08185 15.7141 3.15109C15.4722 3.18269 15.2269 3.28136 14.8887 3.4588C14.3915 3.71959 13.7969 3.73002 13.3099 3.45096C12.8229 3.17191 12.5347 2.65566 12.5136 2.09794C12.4993 1.71848 12.4628 1.45833 12.3694 1.23463C12.1649 0.74458 11.7726 0.35523 11.2788 0.15224ZM9.49999 13C11.1695 13 12.5228 11.6569 12.5228 10C12.5228 8.3431 11.1695 7 9.49999 7C7.83049 7 6.47715 8.3431 6.47715 10C6.47715 11.6569 7.83049 13 9.49999 13Z" fill="white"/>
</svg>
